<?xml version="1.0" encoding="UTF-8" standalone="no"?>
<svg width="1241px" height="871px" viewBox="0 0 1241 871" version="1.1" xmlns="http://www.w3.org/2000/svg" xmlns:xlink="http://www.w3.org/1999/xlink" xmlns:sketch="http://www.bohemiancoding.com/sketch/ns">
    <!-- Generator: Sketch 3.4.4 (17249) - http://www.bohemiancoding.com/sketch -->
    <title>ipad</title>
    <desc>Created with Sketch.</desc>
    <defs></defs>
    <g id="Page-1" stroke="none" stroke-width="1" fill="none" fill-rule="evenodd" sketch:type="MSPage">
        <g id="Artboard-6" sketch:type="MSArtboardGroup" transform="translate(-1567.000000, -516.000000)">
            <g id="ipad" sketch:type="MSLayerGroup" transform="translate(2187.500000, 951.500000) rotate(-90.000000) translate(-2187.500000, -951.500000) translate(1752.000000, 331.000000)">
                <path d="M0,60.0000286 C0,26.8629278 26.872131,0 59.9961272,0 L811.003873,0 C844.138819,0 871,26.8559891 871,60.0000286 L871,1180.99997 C871,1214.13707 844.127869,1241 811.003873,1241 L59.9961272,1241 C26.8611811,1241 0,1214.14401 0,1180.99997 L0,60.0000286 Z M435,1217 C449.911688,1217 462,1204.91169 462,1190 C462,1175.08831 449.911688,1163 435,1163 C420.088312,1163 408,1175.08831 408,1190 C408,1204.91169 420.088312,1217 435,1217 Z M435.5,63 C439.089851,63 442,60.0898509 442,56.5 C442,52.9101491 439.089851,50 435.5,50 C431.910149,50 429,52.9101491 429,56.5 C429,60.0898509 431.910149,63 435.5,63 Z" id="Rectangle-451" fill="#ECEFF1" sketch:type="MSShapeGroup"></path>
                <rect id="Rectangle-457" fill="#CFD8DC" sketch:type="MSShapeGroup" x="44" y="106" width="783" height="1038"></rect>
            </g>
        </g>
    </g>
</svg>