<?xml version="1.0" encoding="UTF-8" standalone="no"?>
<svg width="370px" height="704px" viewBox="0 0 370 704" version="1.1" xmlns="http://www.w3.org/2000/svg" xmlns:xlink="http://www.w3.org/1999/xlink" xmlns:sketch="http://www.bohemiancoding.com/sketch/ns">
    <!-- Generator: Sketch 3.4.4 (17249) - http://www.bohemiancoding.com/sketch -->
    <title>iphone</title>
    <desc>Created with Sketch.</desc>
    <defs></defs>
    <g id="Page-1" stroke="none" stroke-width="1" fill="none" fill-rule="evenodd" sketch:type="MSPage">
        <g id="Artboard-6" sketch:type="MSArtboardGroup" transform="translate(-68.000000, -54.000000)">
            <g id="iphone" sketch:type="MSLayerGroup" transform="translate(68.000000, 54.000000)">
                <path d="M3,64.003146 C3,30.8643235 29.8562632,4 62.999343,4 L310.000657,4 C343.137379,4 370,30.8651793 370,64.003146 L370,643.996854 C370,677.135676 343.143737,704 310.000657,704 L62.999343,704 C29.8626209,704 3,677.134821 3,643.996854 L3,64.003146 Z M187,685 C205.225397,685 220,670.225397 220,652 C220,633.774603 205.225397,619 187,619 C168.774603,619 154,633.774603 154,652 C154,670.225397 168.774603,685 187,685 Z M187,50 C192.522847,50 197,45.5228475 197,40 C197,34.4771525 192.522847,30 187,30 C181.477153,30 177,34.4771525 177,40 C177,45.5228475 181.477153,50 187,50 Z M153,73 C153,69.6862915 155.688607,67 159.004767,67 L213.995233,67 C217.311574,67 220,69.6930342 220,73 C220,76.3137085 217.311393,79 213.995233,79 L159.004767,79 C155.688426,79 153,76.3069658 153,73 Z" id="Rectangle-451" fill="#ECEFF1" sketch:type="MSShapeGroup"></path>
                <rect id="Rectangle-457" fill="#CFD8DC" sketch:type="MSShapeGroup" x="19" y="105" width="335" height="496"></rect>
                <rect id="Rectangle-452" fill="#ECEFF1" sketch:type="MSShapeGroup" x="252" y="0" width="55" height="4" rx="5"></rect>
                <rect id="Rectangle-452" fill="#ECEFF1" sketch:type="MSShapeGroup" x="0" y="105" width="3" height="35"></rect>
                <rect id="Rectangle-452" fill="#ECEFF1" sketch:type="MSShapeGroup" x="0" y="156" width="3" height="34"></rect>
                <rect id="Rectangle-452" fill="#ECEFF1" sketch:type="MSShapeGroup" x="0" y="206" width="3" height="35"></rect>
            </g>
        </g>
    </g>
</svg>