<?xml version="1.0" encoding="UTF-8" standalone="no"?>
<svg width="52px" height="40px" viewBox="0 0 52 40" version="1.1" xmlns="http://www.w3.org/2000/svg" xmlns:xlink="http://www.w3.org/1999/xlink">
    <!-- Generator: Sketch 3.8.3 (29802) - http://www.bohemiancoding.com/sketch -->
    <title>LOGO1</title>
    <desc>Created with Sketch.</desc>
    <defs></defs>
    <g id="Page-1" stroke="none" stroke-width="1" fill="none" fill-rule="evenodd">
        <g id="Logo" transform="translate(-40.000000, -312.000000)" fill="#2196F3">
            <g id="LOGO1" transform="translate(40.000000, 312.000000)">
                <g id="Mark">
                    <path d="M26.00008,24.3 C21.59748,24.3 17.99758,20.8717 17.71938,16.5394 C18.63418,16.7421 19.56118,16.9119 20.49938,17.0476 C20.99008,19.6394 23.26548,21.6 26.00008,21.6 C26.57108,21.6 27.12198,21.514 27.64098,21.3552 L27.43608,17.6687 L30.25578,19.6378 C30.87718,18.9115 31.31578,18.0247 31.50078,17.0476 C32.43888,16.9119 33.36598,16.7422 34.28078,16.5394 C34.00258,20.8717 30.40268,24.3 26.00008,24.3 L26.00008,24.3 L26.00008,24.3 Z M36.99998,13 L36.99928,13 C36.87278,13.0413 36.74588,13.0818 36.61878,13.1217 C35.76338,13.3904 34.89418,13.6277 34.01208,13.8318 C33.13678,14.0344 32.24888,14.2043 31.34998,14.3406 C29.60518,14.6051 27.81868,14.7424 26.00008,14.7424 C24.18148,14.7424 22.39498,14.6051 20.65018,14.3406 C19.75128,14.2043 18.86338,14.0344 17.98808,13.8318 C17.10598,13.6277 16.23678,13.3904 15.38138,13.1217 C15.25428,13.0818 15.12738,13.0413 15.00098,13 L14.99998,13 C14.99998,13 15.00008,15.9433 15.00008,16 C15.00008,22.0751 19.92498,27 26.00008,27 C32.07308,27 36.99658,22.0785 36.99998,16.0063 L36.99998,13 L36.99998,13 Z" id="Fill-1"></path>
                    <path d="M44.48995,29.57788 L39.07535,25.79778 L39.50555,33.52148 C35.56925,35.91878 30.94595,37.29998 26.00005,37.29998 C21.05505,37.29998 16.43255,35.91928 12.49665,33.52288 L12.92695,25.79608 L7.51005,29.57788 C5.64565,27.69218 4.06665,25.52358 2.84565,23.14098 C3.14425,21.94598 3.53175,20.78628 4.00295,19.67028 C4.44255,18.62918 4.95465,17.62638 5.53155,16.66688 C5.07865,15.63948 4.70095,14.57168 4.40515,13.47028 C3.90735,11.61648 3.64035,9.66828 3.64035,7.65748 C3.64035,6.58558 3.71745,5.53198 3.86335,4.50038 L11.60715,9.90788 C12.37655,9.32528 13.18225,8.78818 14.02055,8.30078 C17.54165,6.25338 21.63355,5.07988 26.00005,5.07988 C30.36645,5.07988 34.45845,6.25338 37.97945,8.30078 C38.81775,8.78818 39.62345,9.32528 40.39295,9.90788 L48.13665,4.50038 C48.28245,5.53198 48.35965,6.58558 48.35965,7.65748 C48.35965,9.66828 48.09255,11.61648 47.59485,13.47018 C47.29905,14.57168 46.92135,15.63948 46.46845,16.66688 C47.04535,17.62638 47.55745,18.62918 47.99705,19.67038 C48.46825,20.78628 48.85575,21.94598 49.15435,23.14098 C47.93335,25.52358 46.35435,27.69218 44.48995,29.57788 M50.75225,19.27838 C50.37575,18.31538 49.94405,17.38028 49.46225,16.47578 C50.49385,13.73258 51.05975,10.76128 51.05975,7.65748 C51.05975,6.01428 50.89985,4.40868 50.59785,2.85378 C50.59375,2.83258 50.58985,2.81138 50.58565,2.79018 C50.39855,1.83968 50.15765,0.90858 49.86635,-2e-05 L40.39425,6.61448 C36.24645,3.93558 31.30515,2.37988 26.00005,2.37988 C20.69495,2.37988 15.75355,3.93558 11.60575,6.61448 L2.13365,-2e-05 C1.84235,0.90858 1.60145,1.83968 1.41425,2.79018 C1.41015,2.81138 1.40625,2.83268 1.40205,2.85388 C1.10015,4.40878 0.94025,6.01428 0.94025,7.65748 C0.94025,10.76128 1.50605,13.73258 2.53775,16.47578 C2.05595,17.38028 1.62425,18.31538 1.24775,19.27838 C0.72165,20.62448 0.30255,22.02408 5.00000001e-05,23.46668 C0.63175,24.81428 1.36355,26.10558 2.18885,27.32888 C3.10575,28.68818 4.13635,29.96438 5.26635,31.14468 C5.90175,31.80828 6.56865,32.44138 7.26475,33.04168 L9.92195,31.18608 L9.71365,34.93268 C10.55435,35.51308 11.42645,36.05138 12.32885,36.54108 C16.39345,38.74698 21.05045,39.99998 26.00005,39.99998 C30.95055,39.99998 35.60835,38.74658 39.67335,36.53998 C40.57575,36.05008 41.44785,35.51168 42.28855,34.93118 L42.08045,31.18778 L44.73525,33.04168 C45.43135,32.44138 46.09825,31.80828 46.73365,31.14468 C47.86365,29.96448 48.89425,28.68828 49.81115,27.32898 C50.63645,26.10558 51.36825,24.81428 52.00005,23.46668 C51.69745,22.02408 51.27835,20.62448 50.75225,19.27838" id="Fill-3"></path>
                </g>
            </g>
        </g>
    </g>
</svg>