<?xml version="1.0" encoding="utf-8"?>
<!-- Generator: Adobe Illustrator 19.0.0, SVG Export Plug-In . SVG Version: 6.00 Build 0)  -->
<svg version="1.1" id="Layer_1" xmlns="http://www.w3.org/2000/svg" xmlns:xlink="http://www.w3.org/1999/xlink" x="0px" y="0px"
	width="226px" height="38px" viewBox="-224 379 226 38" style="enable-background:new -224 379 226 38;" xml:space="preserve">
<style type="text/css">
	.st0{fill:#455A64;}
	.st1{fill:#2673B4;}
	.st2{fill:#0C578A;}
	.st3{fill:#91CBF5;}
	.st4{fill:#3FA8E2;}
	.st5{fill:url(#SVGID_1_);}
	.st6{fill:url(#SVGID_2_);}
	.st7{fill:#0D588B;}
	.st8{fill:#FFFFFF;}
	.st9{fill:#217DB4;}
	.st10{fill:#CFDFEF;}
	.st11{fill:#FEFEFD;}
</style>
<path id="computer-icon" class="st0" d="M-224,379v23.2h30.1V379H-224z M-197,399.2h-23.9V382h23.9V399.2L-197,399.2z M-204.7,404.1
	l3,3h-14.7l3-3H-204.7z"/>
<path id="tablet-icon" class="st0" d="M-174.2,399.2v-18.5c0-1-0.8-1.7-1.7-1.7h-13.3c-1,0-1.7,0.8-1.7,1.7v18.5
	c0,1,0.8,1.7,1.7,1.7h13.4C-175,400.9-174.2,400.1-174.2,399.2z M-189,398.4v-17.1h12.6v17.1H-189z M-183.1,399.7
	c0-0.2,0.2-0.4,0.4-0.4s0.4,0.2,0.4,0.4c0,0.2-0.2,0.4-0.4,0.4S-183.1,399.9-183.1,399.7z"/>
<path id="tablet-icon_1_" class="st0" d="M-149.7,379h-18.5c-1,0-1.7,0.8-1.7,1.7v13.4c0,1,0.8,1.7,1.7,1.7h18.5
	c1,0,1.7-0.8,1.7-1.7v-13.4C-148,379.7-148.8,379-149.7,379z M-150.4,393.7h-17.2v-12.6h17.1v12.6H-150.4z M-149.2,387.8
	c-0.2,0-0.4-0.2-0.4-0.4c0-0.2,0.2-0.4,0.4-0.4s0.4,0.2,0.4,0.4C-148.8,387.6-149,387.8-149.2,387.8z"/>
<path id="smartphone-4-icon" class="st0" d="M-135.7,379h-7.7c-0.9,0-1.6,0.8-1.6,1.6v16.9c0,0.9,0.8,1.6,1.6,1.6h7.7
	c0.9,0,1.6-0.8,1.6-1.6v-16.9C-134,379.8-134.8,379-135.7,379z M-140.4,380.4h1.8c0.1,0,0.3,0.1,0.3,0.3c0,0.1-0.1,0.3-0.3,0.3h-1.8
	c-0.1,0-0.3-0.1-0.3-0.3C-140.7,380.6-140.5,380.4-140.4,380.4z M-139.5,398.2c-0.4,0-0.8-0.4-0.8-0.8s0.4-0.8,0.8-0.8
	c0.4,0,0.8,0.4,0.8,0.8S-139.1,398.2-139.5,398.2z M-135.3,395.8h-8.4v-13.4h8.4V395.8z"/>
<path id="smartphone-4-icon_1_" class="st0" d="M-128.8,380.7v7.7c0,0.9,0.8,1.6,1.6,1.6h16.9c0.9,0,1.6-0.8,1.6-1.6v-7.7
	c0.1-0.8-0.5-1.6-1.4-1.6h-16.9C-128,379.1-128.8,379.9-128.8,380.7z M-127.2,385.5v-1.8c0-0.1,0.1-0.3,0.3-0.3s0.1,0.1,0.1,0.3v1.8
	c0,0.1-0.1,0.1-0.3,0.1S-127.2,385.6-127.2,385.5z M-109.6,384.6c0,0.4-0.4,0.8-0.8,0.8c-0.4,0-0.8-0.4-0.8-0.8s0.4-0.8,0.8-0.8
	C-109.9,383.8-109.6,384-109.6,384.6z M-111.9,380.3v8.4h-13.5v-8.4H-111.9z"/>
<rect x="-63.1" y="381" class="st0" width="3" height="3"/>
<g>
	<g>
		<path class="st1" d="M-1.1,400.8c0.4,2.3-0.1,3.5-2.2,5.4c-2,1.9-3,2.5-4,4s-1.8,2.9-3.7,3.5c-2,0.6-5.6,0.1-7.8-0.3
			s-5.8-0.6-8.3-1.2c-2.5-0.5-3.5-1-3.5-1s-1.4-0.1-1.8-2.1c-0.4-2-0.6-4.1-0.6-4.1s-2.6-1.7-4.2-4.8c-1.6-3.1-2.6-8.7-2.5-12.3
			s0.2-4.3,1-4.4s0.9,0.9,1.3,2.8s1.1,4.8,3.1,7.2c2,2.4,2.8,3.6,2.8,3.6s2.2-0.2,4.1-2.6c1.9-2.4,3.5-3.8,4.2-4.5
			c0.7-0.7,1.3-1.4,2.1-1.5c0.8,0,1.4,0.9,2.1,0.8c0.4,0,1-1.2,2.2-1.5c1.2-0.3,3.1,0.3,4.8,1.6c1.7,1.2,3.1,2.7,3.1,2.7
			s1.2-2.7,2.2-5.1s0.9-3.9,1-5.2c0-1.3,0.1-1.7,0.8-1.9s1.5,1.5,2.2,3.5c0.6,2,1.4,4.9,1.1,7.9c-0.3,2.9-1.6,5.5-1.6,5.5
			S-1.6,398.6-1.1,400.8z M-1.7,402.3c0.1-1.6-0.7-3.6-2.2-5.4c1.4-2.6,1.7-6.4,1.4-9s-1.2-5.1-2.5-7.1c0,2.2-0.4,4.6-0.9,6.4
			c-0.5,1.8-1.7,3.6-2.8,5.8c-1.2-0.6-2.7-2.1-3.8-2.9c-1.1-0.8-2.5-1.7-3.9-1.5c-1.4,0.2-1.7,1.4-2.5,1.6c-0.8,0.2-1.4-0.9-2.1-0.9
			c-0.7,0-1.8,1.5-3.2,2.6s-2.4,3.1-4.2,4.7c-1.7,1.6-3.5,1.3-3.5,1.3s-0.8-1.2-2.3-2.8c-1.6-1.6-2.4-3.7-3.3-6.2
			c-1-2.5-1-4.6-1.2-4.5s-0.6,3.5-0.4,6.4c0.3,2.9,1,6.7,2.7,9.6s4.1,4.4,4.1,4.4s0.1,2.5,0.5,4.2c0.4,1.8,1.4,1.4,1.4,1.4
			s0.3,0.3,2.1,0.8s6.3,1.2,8.7,1.4c2.3,0.2,4.9,0.7,6.7,0.6s2.8-0.7,3.6-1.8c0.7-1,2.6-3.2,4.5-4.9C-2.9,404.8-1.8,403.9-1.7,402.3
			z"/>
		<path class="st2" d="M-9.3,411.5c-0.7,1-1.8,1.6-3.6,1.8c-1.8,0.1-4.3-0.3-6.7-0.6c-2.3-0.2-6.9-0.9-8.7-1.4s-2.1-0.8-2.1-0.8
			s-0.9,0.3-1.4-1.4c-0.4-1.8-0.5-4.2-0.5-4.2s-2.4-1.5-4.1-4.4s-2.4-6.7-2.7-9.6c-0.3-2.9,0.2-6.3,0.4-6.4c0.2-0.1,0.3,2,1.2,4.5
			c1,2.5,1.8,4.6,3.3,6.2c1.6,1.6,2.3,2.8,2.3,2.8s1.8,0.3,3.5-1.3c1.7-1.6,2.7-3.5,4.2-4.7c1.4-1.1,2.5-2.6,3.2-2.6s1.3,1,2.1,0.9
			c0.8-0.1,1.1-1.4,2.5-1.6c1.4-0.2,2.8,0.6,3.9,1.5c1.1,0.8,2.6,2.4,3.8,2.9c1-2.2,2.2-4,2.8-5.8c0.5-1.8,1-4.2,0.9-6.4
			c1.4,2,2.2,4.5,2.5,7.1s0,6.4-1.4,9c1.4,1.8,2.3,3.8,2.2,5.4c-0.2,1.6-1.2,2.6-3.1,4.3C-6.7,408.4-8.6,410.5-9.3,411.5z
			 M-32.1,404.5c0.8,0.5,0.7,0.6,0.7,0.6l0,0h-0.4c0,0,0.1,2.4,0.5,3.8c0.5,1.5,0.9,1.3,0.9,1.3s1.1,0.6,4.1,1.2s5.9,0.9,10.2,1.6
			s5.4-0.2,6.2-1s2.1-3.1,4.6-5.4c2.6-2.3,3.3-2.9,3.1-5.2c-0.1-1.4-1.1-2.8-1.7-3.6c-0.4-0.4-0.6-0.7-0.6-0.7s1.1-1.6,1.5-5.3
			c0.5-3.7-0.3-6.7-1.8-9.7c0.2,2.6-0.2,5.1-1.2,8.3c-1,3.1,0.3,5,0.2,5.3c-1.5-2.2-1-3.9,0-7.2c-0.9,1.3-1.2,2.2-2.8,5.2
			c-1-0.3-3.3-2.2-4.9-3.7c-1.6-1.6-3.4-0.6-4.1,0c-0.7,0.6-0.7,0.9-1.5,0.9c-0.7,0-1.1-0.2-1.5-0.8s-1.1-0.3-1.4,0.3
			c-0.4,0.6-1.2,1.1-2.2,2c-1.1,0.9-1.6,2-2.7,3.4c-1.1,1.4-2.7,2.4-4.8,2.3c1.5,2.3,0.9,4.1,0.8,4.3c-0.1,0.2-0.3,0.4-0.5-0.1
			c0.4-2.1,0-3.4-1.4-5c-1.3-1.6-3.6-3.6-5.9-10.5c-0.1,2.5,0.1,7.8,1.6,11.4C-35.4,401.7-32.8,404-32.1,404.5z"/>
		<path class="st3" d="M-4.7,382c1.5,3,2.3,6,1.8,9.7c-0.5,3.7-1.5,5.3-1.5,5.3s0.3,0.3,0.6,0.7c-0.2,3.4-1.6,6.8-2.6,8
			c-1,1.2-3.7,4.1-6,4.9c-2.4,0.8-7.6,0.8-11.2-0.2c-3.6-1-6.4-3.8-7.8-5.4l0,0c0,0,0.1-0.1-0.7-0.6s-3.4-2.7-4.9-6.3
			c-1.5-3.5-1.7-8.9-1.6-11.4c2.3,6.8,4.5,8.9,5.9,10.5c1.3,1.6,1.8,2.9,1.4,5c0.2,0.4,0.5,0.2,0.5,0.1c0.1-0.2,0.7-1.9-0.8-4.3
			c2.1,0.1,3.7-0.9,4.8-2.3c1.1-1.4,1.7-2.6,2.7-3.4c1.1-0.9,1.8-1.4,2.2-2c0.4-0.6,1-1,1.4-0.3c0.4,0.6,0.7,0.9,1.5,0.8
			c0.8-0.1,0.8-0.4,1.5-0.9c0.7-0.6,2.5-1.6,4.1,0c1.5,1.6,3.8,3.4,4.9,3.7c1.6-3,1.9-3.9,2.8-5.2c-1,3.2-1.5,4.9,0,7.2
			c0.1-0.3-1.2-2.2-0.2-5.3C-4.9,387.2-4.5,384.7-4.7,382z M-5.1,395c1.5,0.1,2.1-2,2.1-5.5s-1.5-6.3-1.5-6.3s0.2,3.2-0.7,5.6
			C-6,391.3-6.1,394.3-5.1,395z M-31.7,402.1c0.6-2.6-0.9-4-3.5-6.9c-2.6-3-3.2-6.8-3.2-6.8s0.2,3.7,1,6.3
			C-36.6,397.3-35.6,400.2-31.7,402.1z"/>
		<path class="st4" d="M-35.2,395.1c2.6,3,4.1,4.3,3.5,6.9c-3.8-1.9-4.9-4.8-5.7-7.4c-0.8-2.6-1-6.3-1-6.3S-37.8,392.1-35.2,395.1z"
			/>
		<path class="st4" d="M-3,389.6c0,3.5-0.6,5.6-2.1,5.5c-1-0.7-0.9-3.7,0-6.2c0.9-2.4,0.7-5.6,0.7-5.6S-3,386.1-3,389.6z"/>
		<path class="st4" d="M-2.1,401.3c0.2,2.3-0.5,2.8-3.1,5.2c-2.6,2.3-3.8,4.6-4.6,5.4c-0.8,0.8-1.9,1.7-6.2,1
			c-4.3-0.7-7.3-0.9-10.2-1.6c-3-0.6-4.1-1.2-4.1-1.2s-0.5,0.2-0.9-1.3c-0.5-1.5-0.5-3.8-0.5-3.8h0.4c1.3,1.6,4.1,4.4,7.8,5.4
			c3.6,1,8.9,1,11.2,0.2c2.4-0.8,5-3.7,6-4.9c1-1.2,2.4-4.6,2.6-8C-3.2,398.5-2.2,399.9-2.1,401.3z"/>
		
			<linearGradient id="SVGID_1_" gradientUnits="userSpaceOnUse" x1="-656.2978" y1="-5105.0586" x2="-654.4096" y2="-5105.0586" gradientTransform="matrix(1 0 0 1 649.9805 5493.7031)">
			<stop  offset="0.468" style="stop-color:#B4E2FF"/>
			<stop  offset="1" style="stop-color:#91CBF5"/>
		</linearGradient>
		<path class="st5" d="M-5.1,395c-0.1,0.2-0.7,0.3-0.8,0c-1.2-3.1,0.2-4.8,0.9-8.2c0.4-2.6,0.3-3.3,0.3-4.7c0.1,0.2,0.1,0.2,0.2,0.5
			c0.4,5.7-0.9,6-1.2,8.8C-6,393.7-5.6,394.6-5.1,395z"/>
	</g>
	
		<linearGradient id="SVGID_2_" gradientUnits="userSpaceOnUse" x1="-688.5542" y1="-5099.0703" x2="-681.1302" y2="-5099.0703" gradientTransform="matrix(1 0 0 1 649.9805 5493.7031)">
		<stop  offset="0" style="stop-color:#91CBF5"/>
		<stop  offset="0.5" style="stop-color:#B4E2FF"/>
	</linearGradient>
	<path class="st6" d="M-31.7,402.1c-0.1,0.2,0.3,0.5,0.4,0.3c0.1-0.8,0.4-1.7-0.1-3.1c-0.4-1.1-1.5-2.5-3.5-4.8
		c-1.7-2.3-3.2-6.4-3.6-7.7c0,0.1,0,0.3,0,0.4c0.3,2.4,1.3,5.3,3.1,7.6C-34,397-30.8,399-31.7,402.1z"/>
	<g>
		<path class="st7" d="M-19.3,407.5c0,0,0-1.9-1.5-3.3c-0.4-0.3-0.6,0.1-0.5,0.2c0.2,1.1-1,1.9-1.1,2.8
			C-20.7,407.8-19.3,407.5-19.3,407.5z"/>
		<path class="st8" d="M-22.1,407.2c0.3-0.9,0.9-0.9,1.3-2.3c0.9,0.5,1.3,2.7,1.1,2.6C-21.5,407.6-22.2,407.2-22.1,407.2z"/>
	</g>
	<g>
		<path class="st9" d="M-11.9,410.7c-2.5,1.2-5.1,0.9-6.2,0.3c0,0,2.4,0,5.4-1.1c2.3-0.9,4.6-2.5,4.6-2.5S-9.4,409.5-11.9,410.7z"/>
	</g>
	<g>
		<path class="st8" d="M-15.5,397.7c0.7,1.1,0.2,3-2.8,4.2c-0.5,0.2-1,0.4-1.4,0.5c-1.7,0.4-3.5,0.1-4.6-0.4c-1.3-0.5-1.3-2-0.8-3.3
			c0.5-1.3,1.2-1.5,3.5-3.3c2.2-1.8,3.6-1.6,5-0.5c0.2,0.3,0.3,0.7,0.5,1C-16,396.6-15.8,397.2-15.5,397.7z M-17.5,399.2
			c0.7,0-0.1-2-0.8-1.8C-18.7,397.5-18.2,399.1-17.5,399.2z"/>
		<path d="M-18.3,397.4c0.7-0.2,1.5,1.8,0.8,1.8C-18.2,399.1-18.7,397.5-18.3,397.4z"/>
		<path class="st10" d="M-20.3,392.7c0.8-0.3,2.5,0.1,3.7,2.2c-1.4-1.1-2.8-1.2-5,0.5c-2.3,1.8-3,2-3.5,3.3
			c-0.5,1.3-0.5,2.8,0.8,3.3c1.1,0.5,2.9,0.7,4.6,0.4c-2.3,0.8-4.2,1.1-5.6,0.3c-1.7-0.9-2.2-3.5-0.5-5.4
			C-24,395.5-21.2,393.1-20.3,392.7z"/>
		<path class="st7" d="M-15.4,397.7L-15.4,397.7c0.1,0.1,0.1,0.1,0.1,0.2c0,0,0,0.1,0.1,0.2c0,0.1,0.1,0.3,0.1,0.4
			c0,0.2,0,0.4,0,0.6l0,0l0,0v0.1v0.1v0.1v0.1l0,0l0,0v0.1v0.1c0,0.1-0.1,0.1-0.1,0.2c0,0,0,0.1-0.1,0.1c0,0,0,0.1-0.1,0.1
			c-0.1,0.1-0.2,0.2-0.3,0.4c-0.2,0.2-0.5,0.5-0.7,0.7c-0.3,0.2-0.6,0.4-0.9,0.6c0,0-0.1,0-0.1,0.1c0,0-0.1,0-0.1,0.1
			c0,0-0.1,0-0.1,0.1s-0.1,0-0.1,0.1c0,0-0.1,0-0.1,0.1c0,0-0.1,0-0.1,0.1c-0.1,0-0.2,0.1-0.3,0.1c-0.4,0.2-0.8,0.3-1.2,0.5
			c-0.1,0-0.2,0.1-0.3,0.1s-0.1,0-0.2,0.1c-0.1,0-0.1,0-0.2,0.1c-0.1,0-0.2,0.1-0.3,0.1s-0.1,0-0.2,0h-0.1h-0.1
			c-0.4,0.1-0.9,0.2-1.4,0.3s-1,0.1-1.5,0c-0.2,0-0.5-0.1-0.7-0.2c-0.2-0.1-0.5-0.2-0.7-0.3h-0.1l-0.1-0.1c0,0-0.1,0-0.1-0.1
			l-0.1-0.1c0,0-0.1,0-0.1-0.1l-0.1-0.1c-0.1,0-0.1-0.1-0.1-0.1c-0.2-0.2-0.3-0.4-0.5-0.6c-0.3-0.5-0.4-1-0.4-1.5s0.1-1.1,0.2-1.5
			c0.1-0.2,0.2-0.5,0.3-0.7l0.1-0.1c0,0,0-0.1,0.1-0.1c0-0.1,0.1-0.1,0.1-0.2c0.1-0.1,0.2-0.2,0.2-0.3l0.1-0.1c0,0,0,0,0.1-0.1
			l0.1-0.1c0.1-0.1,0.2-0.2,0.3-0.3c0.2-0.2,0.3-0.4,0.5-0.5c0.3-0.3,0.7-0.7,1-1c0.7-0.6,1.4-1.2,2.1-1.8c0.2-0.1,0.3-0.3,0.5-0.4
			c0.2-0.1,0.3-0.2,0.5-0.4c0.1-0.1,0.2-0.1,0.3-0.2c0,0,0,0,0.1,0l0,0l0,0l0,0l0,0c0,0,0,0,0.1,0l0,0l0,0l0,0l0,0h0.1
			c0.1,0,0.1,0,0.2,0c0.1,0,0.2,0,0.3,0c0.4,0,0.8,0.2,1.1,0.3c0,0,0.1,0,0.1,0.1c0,0,0.1,0,0.1,0.1c0.1,0,0.1,0.1,0.2,0.1
			c0.1,0.1,0.3,0.2,0.4,0.3c0.2,0.2,0.4,0.4,0.6,0.6c0.2,0.2,0.3,0.4,0.4,0.6c0.1,0.2,0.2,0.4,0.3,0.5c0,0.1,0.1,0.2,0.1,0.2
			c0,0.1,0.1,0.1,0.1,0.2s0,0.1,0.1,0.1v0.1c0,0.1,0,0.1,0,0.1c0,0.1,0,0.1-0.1,0.1s-0.1,0-0.1,0l0,0c0,0,0,0,0-0.1v-0.1
			c0,0,0-0.1-0.1-0.1c0-0.1-0.1-0.1-0.1-0.2s-0.1-0.1-0.1-0.2c-0.1-0.1-0.2-0.3-0.3-0.5c-0.1-0.2-0.3-0.4-0.4-0.6
			c-0.2-0.2-0.4-0.4-0.6-0.6c-0.1-0.1-0.2-0.2-0.4-0.3c-0.1,0-0.1-0.1-0.2-0.1c0,0-0.1,0-0.1-0.1c0,0-0.1,0-0.1-0.1
			c-0.1-0.1-0.3-0.1-0.5-0.2c-0.2,0-0.3-0.1-0.5-0.1c-0.1,0-0.2,0-0.3,0h-0.1c0,0,0,0-0.1,0l0,0l0,0l0,0l0,0c0,0,0,0-0.1,0l0,0l0,0
			l0,0l0,0c0,0,0,0-0.1,0c0,0,0,0-0.1,0c0,0,0,0-0.1,0c0,0,0,0-0.1,0c0,0,0,0-0.1,0c-0.2,0.1-0.3,0.2-0.5,0.3s-0.3,0.2-0.5,0.4
			c-0.3,0.3-0.7,0.5-1,0.8c-0.3,0.3-0.7,0.6-1,0.9c-0.3,0.3-0.7,0.6-1,1c-0.2,0.2-0.3,0.3-0.5,0.5c-0.1,0.1-0.2,0.2-0.3,0.3
			l-0.1,0.1l0,0l0,0l0,0l0,0l-0.1,0.1c-0.1,0.1-0.1,0.2-0.2,0.3l-0.1,0.1c0,0,0,0,0,0.1v0.1c-0.1,0.2-0.2,0.4-0.3,0.6
			c-0.2,0.4-0.2,0.9-0.2,1.4s0.1,0.9,0.4,1.3s0.6,0.7,0.9,1h0.1h0.1h0.1h0.1h0.1h0.1h0.1h0.1c0.2,0.1,0.4,0.1,0.7,0.2
			c0.5,0.1,0.9,0.1,1.4,0c0.5,0,0.9-0.1,1.3-0.2h0.1h0.1c0.1,0,0.1,0,0.2,0c0.1,0,0.2-0.1,0.3-0.1s0.1,0,0.2,0c0.1,0,0.1,0,0.2-0.1
			c0.1,0,0.2-0.1,0.3-0.1c0.4-0.1,0.8-0.3,1.2-0.4c0.1,0,0.2-0.1,0.3-0.1c0,0,0.1,0,0.1-0.1c0,0,0.1,0,0.1-0.1c0,0,0.1,0,0.1-0.1
			c0,0,0.1,0,0.1-0.1c0,0,0.1,0,0.1-0.1c0,0,0.1,0,0.1-0.1c0.3-0.2,0.6-0.3,0.9-0.5c0.3-0.2,0.5-0.4,0.7-0.6
			c0.1-0.1,0.2-0.2,0.3-0.3c0,0,0-0.1,0.1-0.1c0,0,0-0.1,0.1-0.1c0-0.1,0.1-0.1,0.1-0.2v-0.1v-0.1l0,0l0,0v-0.1v-0.1v-0.1v-0.1l0,0
			l0,0c0-0.2,0-0.4,0-0.6c0-0.2-0.1-0.3-0.1-0.4c0-0.1,0-0.1-0.1-0.1v-0.1c0-0.1,0-0.1,0-0.1l0,0v-0.1
			C-15.5,397.6-15.4,397.6-15.4,397.7z"/>
	</g>
	<g>
		<path class="st7" d="M-29.5,406.4C-29.5,406.4-29.4,406.3-29.5,406.4c0-0.1,0-0.1,0-0.1v-0.1c0-0.1,0.1-0.2,0.1-0.3v-0.1v-0.1
			c0-0.1,0.1-0.1,0.1-0.2s0.1-0.1,0.1-0.2l0.1-0.1l0.1-0.1l0.1-0.1c0,0,0,0,0.1,0c0,0,0,0,0.1,0c0,0,0,0,0.1,0l0,0l0,0l0.1-0.1
			c0.2-0.1,0.3-0.2,0.5-0.3c0.1,0,0.2-0.1,0.3-0.1h0.1h0.1c0.2-0.1,0.4-0.1,0.6-0.1h0.1h0.1c0,0,0,0,0.1,0c0,0,0,0,0.1,0h0.1
			c0.1,0,0.2,0,0.3,0s0.2,0,0.3,0s0.2,0,0.2,0c0.1,0,0.2,0,0.2,0c0.1,0,0.3,0,0.4,0.1c0.1,0,0.2,0,0.3,0.1c0.1,0,0.1,0,0.2,0h0.1
			l0,0c0.1,0,0.1,0.1,0.1,0.1l-0.1,0.1c0,0-0.1,0-0.3,0c-0.1,0-0.2,0-0.3,0s-0.1,0-0.2,0c-0.1,0-0.1,0-0.2,0c-0.1,0-0.1,0-0.2,0
			c-0.1,0-0.2,0-0.2,0c-0.1,0-0.2,0-0.2,0c-0.1,0-0.2,0-0.3,0c-0.2,0-0.4,0-0.5,0s-0.2,0-0.3,0h-0.1h-0.1h-0.1h-0.1h-0.1
			c-0.1,0-0.2,0.1-0.3,0.1c-0.2,0.1-0.3,0.2-0.5,0.2c-0.1,0.1-0.3,0.2-0.4,0.3l-0.1,0.1l-0.1,0.1c0,0.1-0.1,0.1-0.1,0.2
			c0,0.1-0.1,0.1-0.1,0.2c0,0,0,0.1-0.1,0.1v0.1c-0.1,0.1-0.1,0.2-0.1,0.3v0.1v0.1v0.1c0,0.1-0.1,0.1-0.1,0.1
			C-29.4,406.5-29.5,406.4-29.5,406.4L-29.5,406.4z"/>
		<path class="st7" d="M-6.6,398.4L-6.6,398.4L-6.6,398.4c0.1-0.1,0.1-0.1,0.1-0.1s0.1,0,0.1-0.1h0.1h0.1c0.1,0,0.2,0,0.2,0
			c0.1,0,0.2,0,0.3,0s0.2,0,0.3,0s0.2,0,0.3,0.1H-5c0,0,0,0,0.1,0c0,0,0,0,0.1,0s0.2,0.1,0.3,0.1c0,0,0.1,0,0.1,0.1
			c0,0,0.1,0,0.1,0.1c0,0,0.1,0,0.1,0.1c0,0,0.1,0,0.1,0.1c0,0,0.1,0,0.1,0.1c0,0,0,0,0.1,0.1c0,0,0,0,0.1,0.1c0,0,0,0,0,0.1l0,0
			l0,0l0,0l0,0l0,0v0.1h-0.1l0,0c0,0,0,0-0.1-0.1l0,0c0,0,0,0-0.1,0l-0.1-0.1c-0.1,0-0.1-0.1-0.2-0.1c-0.1,0-0.1-0.1-0.2-0.1
			c-0.1,0-0.2-0.1-0.2-0.1l-0.2-0.1c-0.1,0-0.2,0-0.3-0.1c-0.1,0-0.2,0-0.2,0h-0.1h-0.1c-0.1,0-0.1,0-0.2,0H-6h-0.1h-0.1l0,0l0,0
			l0,0h-0.1C-6.7,398.5-6.7,398.4-6.6,398.4L-6.6,398.4z"/>
		<g>
			<path class="st2" d="M-7.4,402.8c0-0.3,0-0.5-0.1-0.7c-0.2-0.8-1.1-2.4-1.1-2.4s-0.2-0.7,0.7-0.6c0.8,0,2.2,0.8,2.3,0.8
				C-6,401.6-7.4,402.7-7.4,402.8z"/>
			<path class="st11" d="M-7.1,402.6c0.2-0.8-1.2-3.1-1.2-3.1s0.6,0,2.6,0.9C-5.7,400.7-6.5,402.2-7.1,402.6z"/>
		</g>
		<path class="st7" d="M-25.9,404.3L-25.9,404.3C-25.9,404.4-25.9,404.4-25.9,404.3c0,0.1,0.1,0.2,0.1,0.3c0.1,0.2,0.2,0.4,0.4,0.7
			c0.1,0.1,0.2,0.3,0.4,0.4c0.1,0.1,0.3,0.3,0.5,0.4c0,0,0.1,0.1,0.2,0.1c0.1,0,0.1,0.1,0.2,0.1c0,0,0.1,0,0.1,0.1
			c0,0,0.1,0,0.1,0.1h0.1h0.1c0.1,0,0.1,0.1,0.2,0.1c0.1,0,0.1,0.1,0.2,0.1c0.1,0,0.1,0.1,0.2,0.1c0,0,0,0,0.1,0c0,0,0,0,0.1,0h0.1
			h0.1h0.1c0.1,0,0.1,0,0.2,0.1c0.2,0,0.3,0.1,0.5,0.1h0.1c0,0,0,0,0.1,0c0,0,0,0,0.1,0s0.2,0,0.2,0s0,0,0.1,0c0,0,0,0,0.1,0h0.1
			h0.1c0,0,0,0,0.1,0c0,0,0,0,0.1,0c0.2,0,0.3,0,0.5,0c0.1,0,0.2,0,0.3,0s0.2,0,0.3,0h0.1h0.1c0.1,0,0.2,0,0.3,0h0.1h0.1h0.1h0.1
			h0.1c0.1,0,0.2,0,0.3,0h0.1h0.1h0.1h0.1h0.1h0.1c0.1,0,0.2,0,0.3,0h0.1h0.1c0.1,0,0.2,0,0.3,0s0.2,0,0.3,0s0.2,0,0.3-0.1
			c0.4-0.1,0.8-0.2,1.2-0.3h0.1h0.1c0.1,0,0.2-0.1,0.3-0.1s0.2-0.1,0.3-0.1l0.3-0.1c0.4-0.1,0.8-0.3,1.1-0.4
			c0.4-0.1,0.7-0.3,1.1-0.5c0.7-0.3,1.4-0.7,2.1-1.1c0.3-0.2,0.7-0.4,1-0.6c0.3-0.2,0.6-0.4,0.9-0.6c0.6-0.4,1.1-0.8,1.5-1.3
			c0.2-0.2,0.4-0.5,0.5-0.7c0.1-0.2,0.3-0.5,0.4-0.7c0.1-0.2,0.2-0.4,0.2-0.6c0-0.1,0-0.1,0-0.2v-0.1v-0.1v-0.1
			c0.1-0.3,0.1-0.6,0.1-0.8s0-0.3,0-0.3c0-0.1,0.1-0.1,0.1-0.1c0.1,0,0.1,0,0.1,0.1l0,0c0,0,0,0,0,0.1c0,0.1,0,0.1,0,0.2
			c0,0.2,0,0.5-0.1,0.8c0,0.4-0.1,0.8-0.3,1.3c0,0.1-0.1,0.1-0.1,0.2l0,0l0,0v0.1c-0.1,0.1-0.1,0.3-0.2,0.4c0,0.1-0.1,0.1-0.1,0.2
			s-0.1,0.1-0.1,0.2c0,0.1-0.1,0.1-0.1,0.2l0,0l0,0l-0.1,0.1c-0.4,0.5-0.9,0.9-1.5,1.3c-0.3,0.2-0.6,0.4-0.9,0.6
			c-0.3,0.2-0.6,0.4-1,0.6c-0.7,0.4-1.4,0.7-2.1,1.1c-0.4,0.2-0.7,0.3-1.1,0.5c-0.4,0.1-0.8,0.3-1.2,0.4l-0.3,0.1
			c-0.1,0-0.2,0.1-0.3,0.1s-0.2,0.1-0.3,0.1h-0.1c-0.1,0-0.1,0-0.2,0c-0.4,0.1-0.8,0.2-1.2,0.3c-0.1,0-0.2,0-0.3,0.1
			c-0.1,0-0.2,0-0.3,0s-0.2,0-0.3,0s-0.1,0-0.1,0c-0.1,0-0.1,0-0.1,0c-0.1,0-0.2,0-0.3,0h-0.1h-0.1c-0.1,0-0.1,0-0.1,0
			c-0.1,0-0.1,0-0.1,0h-0.1h-0.1c-0.1,0-0.2,0-0.3,0h-0.1h-0.1h-0.1H-19h-0.1c-0.1,0-0.2,0-0.3,0h-0.1h-0.1c-0.1,0-0.2,0-0.3,0
			s-0.2,0-0.3,0c-0.2,0-0.4,0-0.5,0c0,0,0,0-0.1,0c0,0,0,0-0.1,0H-21h-0.1c0,0,0,0-0.1,0c0,0,0,0-0.1,0s-0.2,0-0.3,0c0,0,0,0-0.1,0
			c0,0,0,0-0.1,0h-0.1c-0.2,0-0.3-0.1-0.5-0.1c-0.1,0-0.2,0-0.2-0.1h-0.1h-0.1h-0.1c0,0,0,0-0.1,0c0,0,0,0-0.1,0s-0.1-0.1-0.2-0.1
			c-0.1,0-0.1-0.1-0.2-0.1c-0.1,0-0.1-0.1-0.2-0.1c-0.3-0.1-0.5-0.3-0.7-0.4c-0.2-0.2-0.4-0.3-0.5-0.5l-0.1-0.1l-0.1-0.1l0,0l0,0
			c0,0,0,0,0-0.1c0,0,0,0,0-0.1c0,0,0,0,0-0.1c-0.2-0.3-0.3-0.6-0.4-0.8c0-0.1-0.1-0.2-0.1-0.2s0,0,0-0.1l0,0c0-0.1,0-0.1,0.1-0.1
			C-25.9,404.2-25.9,404.3-25.9,404.3L-25.9,404.3z"/>
	</g>
	<g>
		<path class="st8" d="M-8.6,396.9c0.1,0.6,0.1,1.2-0.3,1.6c-0.8,0.9-3.1,0.8-4.6,0.6c-0.5-0.1-1-0.3-1.4-0.6
			c-0.2-2.7-0.4-4.2,0.6-4.9C-13.4,393-10.4,394.6-8.6,396.9z M-13.4,397.6c0.4-0.1-0.2-1.5-0.8-1.4
			C-14.4,396.2-13.8,397.7-13.4,397.6z"/>
		<path class="st10" d="M-16.1,396v-0.1c-0.2-1.1-0.1-3.8,1.2-4.3c0.8-0.3,2.6,0.6,4.5,2.3c1,1,1.7,2.1,1.9,2.9
			c-1.8-2.3-4.7-3.9-5.7-3.3s-0.8,2.2-0.6,4.9c-0.2-0.2-0.4-0.5-0.6-0.7C-15.8,397.2-16,396.6-16.1,396z"/>
		<path d="M-14.1,396.2c0.6,0,1.2,1.3,0.8,1.4C-13.8,397.7-14.4,396.2-14.1,396.2z"/>
		<path class="st7" d="M-15,391.5L-15,391.5c0.1,0,0.1,0,0.1,0s0,0,0.1,0c0,0,0,0,0.1,0c0,0,0,0,0.1,0c0.2,0,0.5,0,0.8,0.1
			s0.7,0.3,1.1,0.5c0.4,0.2,0.9,0.5,1.3,0.9c0.2,0.2,0.5,0.4,0.7,0.6c0.1,0.1,0.2,0.2,0.3,0.3l0,0l0,0l0.1,0.1
			c0.1,0.1,0.1,0.1,0.2,0.2c0.2,0.2,0.4,0.5,0.7,0.8c0.1,0.1,0.2,0.3,0.3,0.4c0.1,0.2,0.2,0.3,0.3,0.5c0.2,0.3,0.3,0.7,0.4,1
			c0,0.2,0.1,0.4,0.1,0.6s0,0.4-0.1,0.6c0,0,0,0.1-0.1,0.1c0,0,0,0,0,0.1c0,0,0,0,0,0.1l-0.1,0.1l0,0l0,0l0,0l0,0l-0.1,0.1
			c-0.1,0.1-0.3,0.2-0.5,0.3s-0.4,0.1-0.6,0.2c-0.2,0-0.4,0.1-0.6,0.1c-0.4,0.1-0.8,0.1-1.1,0.1c-0.4,0-0.8,0-1.1,0
			c-0.2,0-0.4,0-0.6,0h-0.1l0,0l0,0h-0.1l0,0l0,0h-0.1c-0.1,0-0.1,0-0.1,0c-0.2,0-0.4-0.1-0.5-0.2c-0.2-0.1-0.3-0.2-0.5-0.3
			c-0.3-0.2-0.5-0.5-0.7-0.8s-0.3-0.6-0.4-0.9c-0.1-0.3-0.2-0.6-0.2-0.9c-0.1-0.3-0.1-0.6-0.1-0.9c0-0.6,0-1.1,0.1-1.6
			s0.2-0.9,0.4-1.2c0.1-0.1,0.2-0.3,0.3-0.4s0.2-0.2,0.3-0.2C-15.2,391.6-15.1,391.6-15,391.5L-15,391.5L-15,391.5L-15,391.5
			L-15,391.5z M-14.9,391.8C-14.9,391.8-15,391.8-14.9,391.8c-0.1,0-0.1,0.1-0.2,0.1c-0.1,0-0.1,0.1-0.2,0.2
			c-0.1,0.1-0.2,0.2-0.2,0.3c-0.2,0.3-0.3,0.6-0.4,1.1c-0.1,0.4-0.1,0.9-0.1,1.5c0,0.1,0,0.3,0,0.4s0,0.3,0.1,0.4
			c0.1,0.3,0.1,0.6,0.2,0.9c0.1,0.3,0.2,0.6,0.4,0.9c0.2,0.3,0.4,0.5,0.6,0.8c0.3,0.2,0.6,0.4,0.9,0.5h0.1h0.1l0,0l0,0h0.1l0,0l0,0
			h0.1c0.2,0,0.4,0,0.6,0c0.4,0,0.7,0,1.1,0c0.4,0,0.7,0,1.1-0.1c0.2,0,0.4-0.1,0.5-0.1c0.2,0,0.3-0.1,0.5-0.2s0.3-0.2,0.4-0.3h0.1
			l0,0l0,0l0,0l0,0c0,0,0-0.1,0.1-0.1c0,0,0,0,0-0.1c0,0,0,0,0-0.1v-0.1c0.1-0.2,0.1-0.3,0.1-0.5c0-0.2,0-0.3-0.1-0.5
			c-0.1-0.3-0.2-0.7-0.4-1c-0.1-0.2-0.2-0.3-0.3-0.4s-0.2-0.3-0.3-0.4c-0.2-0.3-0.4-0.5-0.6-0.7l-0.1-0.1l-0.1-0.1l-0.1-0.1l0,0l0,0
			l0,0l0,0c-0.1-0.1-0.2-0.2-0.3-0.3c-0.2-0.2-0.4-0.4-0.7-0.6c-0.4-0.3-0.9-0.6-1.3-0.8c-0.4-0.2-0.8-0.4-1.1-0.5s-0.5-0.1-0.7-0.1
			c0,0,0,0-0.1,0l0,0l0,0C-14.8,391.8-14.8,391.8-14.9,391.8C-14.8,391.8-14.9,391.8-14.9,391.8L-14.9,391.8z"/>
	</g>
	<path class="st9" d="M-12.5,402.5c-0.1-0.8-0.2-1.9,0.7-2.3c-0.1-0.6-1.1,0.1-1.3,0.3s-0.2,0.5-0.4,0.7c-0.6,0.6-1.3,0.2-2,0.2
		c-0.8-0.1-1.4,0.6-0.3,0.5c0.4,0,0.6,0,0.9,0.1c0.3,0.1,0.5,0.3,0.8,0.5c0.3,0.3,0.8,1.1,1.3,0.7
		C-12.6,403.1-12.6,402.7-12.5,402.5L-12.5,402.5z"/>
</g>
<rect x="-65.1" y="387" class="st0" width="1" height="1"/>
<rect x="-65.1" y="388" class="st0" width="1" height="1"/>
<rect x="-65.1" y="389" class="st0" width="1" height="1"/>
<rect x="-65.1" y="390" class="st0" width="1" height="1"/>
<rect x="-63.1" y="387" class="st0" width="1" height="1"/>
<rect x="-63.1" y="388" class="st0" width="1" height="1"/>
<rect x="-63.1" y="389" class="st0" width="1" height="1"/>
<rect x="-63.1" y="390" class="st0" width="1" height="1"/>
<rect x="-63.1" y="391" class="st0" width="1" height="1"/>
<rect x="-62.1" y="391" class="st0" width="1" height="1"/>
<path class="st0" d="M-65.1,379v7h7v-7H-65.1z M-59.1,385h-5v-5h5V385z"/>
<rect x="-63.1" y="395" class="st0" width="3" height="3"/>
<path class="st0" d="M-65.1,393v7h7v-7H-65.1z M-59.1,399h-5v-5h5V399z"/>
<rect x="-49.1" y="381" class="st0" width="3" height="3"/>
<path class="st0" d="M-51.1,379v7h7v-7H-51.1z M-45.1,385h-5v-5h5V385z"/>
<rect x="-62.1" y="389" class="st0" width="1" height="1"/>
<rect x="-62.1" y="387" class="st0" width="1" height="1"/>
<rect x="-61.1" y="387" class="st0" width="1" height="1"/>
<rect x="-60.1" y="387" class="st0" width="1" height="1"/>
<rect x="-59.1" y="387" class="st0" width="1" height="1"/>
<rect x="-58.1" y="388" class="st0" width="1" height="1"/>
<rect x="-60.1" y="388" class="st0" width="1" height="1"/>
<rect x="-60.1" y="389" class="st0" width="1" height="1"/>
<rect x="-59.1" y="389" class="st0" width="1" height="1"/>
<rect x="-60.1" y="390" class="st0" width="1" height="1"/>
<rect x="-61.1" y="390" class="st0" width="1" height="1"/>
<rect x="-60.1" y="391" class="st0" width="1" height="1"/>
<rect x="-59.1" y="391" class="st0" width="1" height="1"/>
<rect x="-57.1" y="389" class="st0" width="1" height="1"/>
<rect x="-57.1" y="390" class="st0" width="1" height="1"/>
<rect x="-56.1" y="388" class="st0" width="1" height="1"/>
<rect x="-56.1" y="387" class="st0" width="1" height="1"/>
<rect x="-55.1" y="387" class="st0" width="1" height="1"/>
<rect x="-55.1" y="386" class="st0" width="1" height="1"/>
<rect x="-55.1" y="385" class="st0" width="1" height="1"/>
<rect x="-55.1" y="384" class="st0" width="1" height="1"/>
<rect x="-55.1" y="383" class="st0" width="1" height="1"/>
<rect x="-55.1" y="382" class="st0" width="1" height="1"/>
<rect x="-55.1" y="381" class="st0" width="1" height="1"/>
<rect x="-54.1" y="379" class="st0" width="1" height="1"/>
<rect x="-55.1" y="380" class="st0" width="1" height="1"/>
<rect x="-56.1" y="381" class="st0" width="1" height="1"/>
<rect x="-57.1" y="381" class="st0" width="1" height="1"/>
<rect x="-56.1" y="382" class="st0" width="1" height="1"/>
<rect x="-57.1" y="382" class="st0" width="1" height="1"/>
<rect x="-56.1" y="383" class="st0" width="1" height="1"/>
<rect x="-57.1" y="383" class="st0" width="1" height="1"/>
<rect x="-57.1" y="384" class="st0" width="1" height="1"/>
<rect x="-57.1" y="385" class="st0" width="1" height="1"/>
<rect x="-57.1" y="386" class="st0" width="1" height="1"/>
<rect x="-56.1" y="386" class="st0" width="1" height="1"/>
<rect x="-54.1" y="383" class="st0" width="1" height="1"/>
<rect x="-53.1" y="383" class="st0" width="1" height="1"/>
<rect x="-52.1" y="383" class="st0" width="1" height="1"/>
<rect x="-53.1" y="382" class="st0" width="1" height="1"/>
<rect x="-53.1" y="381" class="st0" width="1" height="1"/>
<rect x="-53.1" y="380" class="st0" width="1" height="1"/>
<rect x="-52.1" y="381" class="st0" width="1" height="1"/>
<rect x="-52.1" y="380" class="st0" width="1" height="1"/>
<rect x="-52.1" y="379" class="st0" width="1" height="1"/>
<rect x="-52.1" y="385" class="st0" width="1" height="1"/>
<rect x="-52.1" y="386" class="st0" width="1" height="1"/>
<rect x="-51.1" y="387" class="st0" width="1" height="1"/>
<rect x="-50.1" y="387" class="st0" width="1" height="1"/>
<rect x="-49.1" y="387" class="st0" width="1" height="1"/>
<rect x="-48.1" y="387" class="st0" width="1" height="1"/>
<rect x="-47.1" y="387" class="st0" width="1" height="1"/>
<rect x="-48.1" y="388" class="st0" width="1" height="1"/>
<rect x="-47.1" y="388" class="st0" width="1" height="1"/>
<rect x="-45.1" y="388" class="st0" width="1" height="1"/>
<rect x="-46.1" y="389" class="st0" width="1" height="1"/>
<rect x="-47.1" y="389" class="st0" width="1" height="1"/>
<rect x="-49.1" y="389" class="st0" width="1" height="1"/>
<rect x="-49.1" y="390" class="st0" width="1" height="1"/>
<rect x="-48.1" y="390" class="st0" width="1" height="1"/>
<rect x="-47.1" y="390" class="st0" width="1" height="1"/>
<rect x="-46.1" y="390" class="st0" width="1" height="1"/>
<rect x="-45.1" y="390" class="st0" width="1" height="1"/>
<rect x="-48.1" y="391" class="st0" width="1" height="1"/>
<rect x="-51.1" y="388" class="st0" width="1" height="1"/>
<rect x="-52.1" y="388" class="st0" width="1" height="1"/>
<rect x="-54.1" y="388" class="st0" width="1" height="1"/>
<rect x="-53.1" y="389" class="st0" width="1" height="1"/>
<rect x="-53.1" y="390" class="st0" width="1" height="1"/>
<rect x="-55.1" y="389" class="st0" width="1" height="1"/>
<rect x="-54.1" y="390" class="st0" width="1" height="1"/>
<rect x="-55.1" y="390" class="st0" width="1" height="1"/>
<rect x="-51.1" y="389" class="st0" width="1" height="1"/>
<rect x="-51.1" y="390" class="st0" width="1" height="1"/>
<rect x="-52.1" y="391" class="st0" width="1" height="1"/>
<rect x="-54.1" y="391" class="st0" width="1" height="1"/>
<rect x="-54.1" y="392" class="st0" width="1" height="1"/>
<rect x="-55.1" y="392" class="st0" width="1" height="1"/>
<rect x="-56.1" y="392" class="st0" width="1" height="1"/>
<rect x="-57.1" y="392" class="st0" width="1" height="1"/>
<rect x="-55.1" y="393" class="st0" width="1" height="1"/>
<rect x="-51.1" y="393" class="st0" width="1" height="1"/>
<rect x="-52.1" y="393" class="st0" width="1" height="1"/>
<rect x="-53.1" y="393" class="st0" width="1" height="1"/>
<rect x="-53.1" y="394" class="st0" width="1" height="1"/>
<rect x="-52.1" y="394" class="st0" width="1" height="1"/>
<rect x="-49.1" y="392" class="st0" width="1" height="1"/>
<rect x="-49.1" y="393" class="st0" width="1" height="1"/>
<rect x="-49.1" y="394" class="st0" width="1" height="1"/>
<rect x="-45.1" y="392" class="st0" width="1" height="1"/>
<rect x="-47.1" y="392" class="st0" width="1" height="1"/>
<rect x="-47.1" y="393" class="st0" width="1" height="1"/>
<rect x="-47.1" y="394" class="st0" width="1" height="1"/>
<rect x="-45.1" y="396" class="st0" width="1" height="1"/>
<rect x="-55.1" y="395" class="st0" width="1" height="1"/>
<rect x="-54.1" y="395" class="st0" width="1" height="1"/>
<rect x="-53.1" y="395" class="st0" width="1" height="1"/>
<rect x="-56.1" y="394" class="st0" width="1" height="1"/>
<rect x="-57.1" y="394" class="st0" width="1" height="1"/>
<rect x="-57.1" y="395" class="st0" width="1" height="1"/>
<rect x="-57.1" y="396" class="st0" width="1" height="1"/>
<rect x="-57.1" y="397" class="st0" width="1" height="1"/>
<rect x="-56.1" y="397" class="st0" width="1" height="1"/>
<rect x="-56.1" y="398" class="st0" width="1" height="1"/>
<rect x="-55.1" y="399" class="st0" width="1" height="1"/>
<rect x="-56.1" y="399" class="st0" width="1" height="1"/>
<rect x="-57.1" y="399" class="st0" width="1" height="1"/>
<rect x="-53.1" y="396" class="st0" width="1" height="1"/>
<rect x="-54.1" y="396" class="st0" width="1" height="1"/>
<rect x="-55.1" y="396" class="st0" width="1" height="1"/>
<rect x="-53.1" y="397" class="st0" width="1" height="1"/>
<rect x="-54.1" y="397" class="st0" width="1" height="1"/>
<rect x="-53.1" y="398" class="st0" width="1" height="1"/>
<rect x="-54.1" y="398" class="st0" width="1" height="1"/>
<rect x="-53.1" y="399" class="st0" width="1" height="1"/>
<rect x="-52.1" y="395" class="st0" width="1" height="1"/>
<rect x="-51.1" y="395" class="st0" width="1" height="1"/>
<rect x="-50.1" y="395" class="st0" width="1" height="1"/>
<rect x="-49.1" y="395" class="st0" width="1" height="1"/>
<rect x="-48.1" y="395" class="st0" width="1" height="1"/>
<rect x="-52.1" y="397" class="st0" width="1" height="1"/>
<rect x="-51.1" y="397" class="st0" width="1" height="1"/>
<rect x="-50.1" y="397" class="st0" width="1" height="1"/>
<rect x="-50.1" y="396" class="st0" width="1" height="1"/>
<rect x="-49.1" y="396" class="st0" width="1" height="1"/>
<rect x="-48.1" y="396" class="st0" width="1" height="1"/>
<rect x="-50.1" y="398" class="st0" width="1" height="1"/>
<rect x="-50.1" y="399" class="st0" width="1" height="1"/>
<rect x="-48.1" y="397" class="st0" width="1" height="1"/>
<rect x="-49.1" y="398" class="st0" width="1" height="1"/>
<rect x="-49.1" y="399" class="st0" width="1" height="1"/>
<rect x="-47.1" y="398" class="st0" width="1" height="1"/>
<rect x="-48.1" y="398" class="st0" width="1" height="1"/>
<rect x="-48.1" y="399" class="st0" width="1" height="1"/>
<rect x="-46.1" y="399" class="st0" width="1" height="1"/>
</svg>
